<?xml version="1.0" standalone="no"?>
<!DOCTYPE svg PUBLIC "-//W3C//DTD SVG 20010904//EN"
 "http://www.w3.org/TR/2001/REC-SVG-20010904/DTD/svg10.dtd">
<svg version="1.0" xmlns="http://www.w3.org/2000/svg"
 width="860.000000pt" height="900.000000pt" viewBox="0 0 860.000000 900.000000"
 preserveAspectRatio="xMidYMid meet">

<g transform="translate(0.000000,900.000000) scale(0.100000,-0.100000)"
fill="#000000" stroke="none">
<path d="M4020 8580 c-215 -21 -297 -31 -354 -41 -93 -16 -373 -79 -425 -95
-175 -52 -223 -68 -329 -108 -284 -106 -618 -279 -842 -434 -124 -87 -139 -97
-197 -142 -295 -227 -609 -552 -806 -835 -239 -343 -377 -608 -521 -997 -34
-90 -46 -132 -81 -263 -8 -27 -21 -75 -29 -105 -42 -150 -92 -466 -106 -678
-42 -638 65 -1278 312 -1852 36 -84 164 -339 198 -395 17 -27 40 -69 52 -93
12 -23 26 -42 30 -42 4 0 8 -4 8 -10 0 -11 123 -195 151 -226 10 -11 19 -26
19 -32 0 -7 5 -12 10 -12 13 0 13 7 -4 82 -25 108 -75 424 -98 623 -19 164
-22 243 -22 570 -1 340 2 399 22 560 67 522 201 965 431 1420 103 206 137 267
169 312 12 17 22 34 22 37 0 4 8 19 19 34 10 15 43 65 74 112 31 47 74 110 97
140 22 30 48 66 57 80 174 253 651 758 962 1019 163 137 271 224 291 236 9 6
41 30 71 53 30 23 80 63 111 87 31 25 59 45 62 45 4 0 39 24 79 53 74 55 487
329 522 347 12 6 112 66 163 98 67 41 165 96 267 152 44 24 85 47 91 52 16 12
224 121 316 166 43 20 78 40 78 44 0 4 -26 9 -57 13 -32 3 -92 10 -133 16 -96
14 -569 20 -680 9z"/>
<path d="M4981 8498 c-11 -18 -45 -68 -76 -111 -30 -43 -55 -81 -55 -84 0 -4
-6 -14 -14 -22 -26 -30 -105 -197 -135 -289 -96 -288 -91 -613 14 -977 30
-104 84 -256 97 -269 4 -6 8 -17 8 -25 0 -8 40 -96 90 -197 77 -156 107 -213
175 -326 5 -9 25 -43 44 -75 18 -32 47 -74 62 -94 16 -20 29 -40 29 -44 0 -5
12 -24 28 -44 15 -20 32 -43 37 -53 10 -16 44 -66 117 -170 38 -53 105 -141
163 -213 22 -27 49 -62 60 -77 71 -93 273 -331 390 -458 39 -42 113 -123 165
-181 123 -136 582 -594 734 -734 66 -61 161 -148 211 -195 50 -47 125 -114
166 -150 40 -36 103 -92 140 -125 36 -33 92 -82 125 -110 32 -27 84 -72 116
-100 31 -27 100 -86 152 -130 53 -44 114 -95 136 -113 21 -18 40 -29 43 -25 7
12 53 130 80 208 140 399 233 1006 212 1390 -22 409 -68 718 -145 970 -54 175
-98 305 -126 375 -20 47 -41 99 -47 115 -28 71 -200 408 -252 493 -181 300
-409 581 -677 837 -101 96 -263 235 -321 275 -12 8 -56 40 -97 71 -101 75
-253 173 -361 232 -388 214 -812 370 -1199 442 -19 4 -42 9 -51 11 -11 3 -24
-7 -38 -28z"/>
<path d="M4815 3543 c-290 -23 -432 -42 -635 -87 -175 -38 -434 -121 -567
-182 -350 -159 -587 -305 -827 -510 -39 -33 -82 -69 -96 -79 -26 -21 -303
-299 -323 -325 -7 -9 -41 -49 -77 -90 -36 -41 -72 -85 -80 -96 -8 -12 -44 -59
-79 -105 -77 -100 -233 -329 -285 -420 -21 -35 -46 -78 -56 -94 l-19 -30 76
-60 c67 -53 179 -134 253 -182 123 -81 159 -103 168 -103 6 0 12 -4 14 -8 8
-20 313 -176 488 -249 493 -206 985 -304 1530 -305 574 0 1082 104 1593 326
256 112 556 279 698 391 14 11 36 27 48 35 402 273 843 758 1103 1210 24 41
48 84 55 95 28 46 56 105 52 108 -11 8 -201 97 -208 97 -4 0 -36 14 -72 31
-164 80 -437 191 -719 292 -372 133 -802 240 -1185 297 -253 37 -668 58 -850
43z"/>
</g>
</svg>
